<svg xmlns="http://www.w3.org/2000/svg" viewBox="0 0 86.35 123.18"><defs><style>.cls-1{fill:#fbdde8;stroke:#176541;stroke-miterlimit:10;stroke-width:2px;}.cls-2{fill:#176541;}.cls-3{fill:#fff;}</style></defs><g id="Livello_2" data-name="Livello 2"><g id="Livello_1-2" data-name="Livello 1"><path class="cls-1" d="M43.17,1C19.91,1,1,19.67,1,42.55A40.79,40.79,0,0,0,6.41,62.84s0,.09,0,.12a4,4,0,0,0,.21.47s0,0,0,0L40,120.28a3.93,3.93,0,0,0,6.76,0L79.59,63.43l.09-.17s0,0,0,0a4.13,4.13,0,0,0,.3-.68,40.76,40.76,0,0,0,5.33-20c0-22.63-18.52-41.07-41.44-41.46,0,0-.08-.05-.13-.05l-.39,0Z"/><path class="cls-2" d="M42.93,12.27c-17.2,0-31.18,13.81-31.18,30.72a30.2,30.2,0,0,0,4,15s0,.06,0,.09a1.58,1.58,0,0,0,.16.35l0,0,24.62,42a2.9,2.9,0,0,0,3.91,1,2.82,2.82,0,0,0,1.08-1.06l24.27-42,.06-.13,0,0a3.22,3.22,0,0,0,.23-.5A30.14,30.14,0,0,0,74.11,43c0-16.73-13.69-30.36-30.63-30.66,0,0-.06,0-.1,0l-.29,0Zm0,16.65A13.18,13.18,0,1,1,29.57,42.11,13.32,13.32,0,0,1,42.93,28.92Z"/><circle class="cls-3" cx="43.93" cy="44.21" r="15.46"/></g></g></svg>